HIERARCHY
ROOT Hips
{
	OFFSET 0.000000 0.000000 0.000000
	CHANNELS 6 Xposition Yposition Zposition Xrotation Yrotation Zrotation
	JOINT LeftUpLeg_virtual
	{
		OFFSET 0.000000 0.000000 0.000000
		CHANNELS 3 Xrotation Yrotation Zrotation
		JOINT LeftUpLeg
		{
			OFFSET 13.026900 -6.336304 -1.092800
			CHANNELS 3 Xrotation Yrotation Zrotation
			JOINT LeftLeg
			{
				OFFSET 0.524474 -46.096886 9.782700
				CHANNELS 3 Xrotation Yrotation Zrotation
				JOINT LeftFoot
				{
					OFFSET -0.524474 -53.427422 -12.948200
					CHANNELS 3 Xrotation Yrotation Zrotation
					JOINT LeftToeBase
					{
						OFFSET 0.192200 -14.009700 16.364100
						CHANNELS 3 Xrotation Yrotation Zrotation
						JOINT LeftToe_End
						{
							OFFSET -1.784700 -0.561700 9.474800
							CHANNELS 3 Xrotation Yrotation Zrotation
							End Site
							{
								OFFSET 0 0 0
							}
						}
					}
				}
			}
		}
	}
	JOINT RightUpLeg_virtual
	{
		OFFSET 0.000000 0.000000 0.000000
		CHANNELS 3 Xrotation Yrotation Zrotation
		JOINT RightUpLeg
		{
			OFFSET -12.883000 -6.336304 -1.092800
			CHANNELS 3 Xrotation Yrotation Zrotation
			JOINT RightLeg
			{
				OFFSET -0.524587 -46.096825 9.782800
				CHANNELS 3 Xrotation Yrotation Zrotation
				JOINT RightFoot
				{
					OFFSET 0.524587 -53.427383 -12.948300
					CHANNELS 3 Xrotation Yrotation Zrotation
					JOINT RightToeBase
					{
						OFFSET -0.192200 -14.009700 16.364100
						CHANNELS 3 Xrotation Yrotation Zrotation
						JOINT RightToe_End
						{
							OFFSET 1.784700 -0.561700 9.474800
							CHANNELS 3 Xrotation Yrotation Zrotation
							End Site
							{
								OFFSET 0 0 0
							}
						}
					}
				}
			}
		}
	}
	JOINT Spine_virtual
	{
		OFFSET 0.000000 0.000000 0.000000
		CHANNELS 3 Xrotation Yrotation Zrotation
		JOINT Spine
		{
			OFFSET 0.072000 7.257294 -0.789700
			CHANNELS 3 Xrotation Yrotation Zrotation
			JOINT Spine1
			{
				OFFSET 0.000000 12.508769 -0.658067
				CHANNELS 3 Xrotation Yrotation Zrotation
				JOINT Spine1_split
				{
					OFFSET 0.000000 12.508769 -0.658067
					CHANNELS 3 Xrotation Yrotation Zrotation
					JOINT Spine2
					{
						OFFSET 0.000000 12.508769 -0.658067
						CHANNELS 3 Xrotation Yrotation Zrotation
						JOINT Neck_virtual
						{
							OFFSET 0.000000 0.000000 0.000000
							CHANNELS 3 Xrotation Yrotation Zrotation
							JOINT Neck
							{
								OFFSET 0.000000 14.033295 7.520400
								CHANNELS 3 Xrotation Yrotation Zrotation
								JOINT Head
								{
									OFFSET 0.000000 8.198502 5.703100
									CHANNELS 3 Xrotation Yrotation Zrotation
									JOINT HeadTop_End
									{
										OFFSET 0.000000 17.760803 13.332701
										CHANNELS 3 Xrotation Yrotation Zrotation
										End Site
										{
											OFFSET 0 0 0
										}
									}
								}
							}
						}
						JOINT LeftShoulder_virtual
						{
							OFFSET 0.000000 0.000000 0.000000
							CHANNELS 3 Xrotation Yrotation Zrotation
							JOINT LeftShoulder
							{
								OFFSET 6.292450 5.785301 -0.669000
								CHANNELS 3 Xrotation Yrotation Zrotation
								JOINT LeftShoulder_split
								{
									OFFSET 6.292450 5.785301 -0.669000
									CHANNELS 3 Xrotation Yrotation Zrotation
									JOINT LeftArm
									{
										OFFSET 13.907140 -6.093903 1.965100
										CHANNELS 3 Xrotation Yrotation Zrotation
										JOINT LeftForeArm
										{
											OFFSET 34.140198 0.000000 0.000000
											CHANNELS 3 Xrotation Yrotation Zrotation
											JOINT LeftHand
											{
												OFFSET 40.960209 0.000000 0.000000
												CHANNELS 3 Xrotation Yrotation Zrotation
												End Site
												{
													OFFSET 0 0 0
												}
											}
										}
									}
								}
							}
						}
						JOINT RightShoulder_virtual
						{
							OFFSET 0.000000 0.000000 0.000000
							CHANNELS 3 Xrotation Yrotation Zrotation
							JOINT RightShoulder
							{
								OFFSET -6.292450 5.785301 -0.669000
								CHANNELS 3 Xrotation Yrotation Zrotation
								JOINT RightShoulder_split
								{
									OFFSET -6.292450 5.785301 -0.669000
									CHANNELS 3 Xrotation Yrotation Zrotation
									JOINT RightArm
									{
										OFFSET -13.907140 -6.093903 1.965100
										CHANNELS 3 Xrotation Yrotation Zrotation
										JOINT RightForeArm
										{
											OFFSET -34.140198 0.000000 0.000000
											CHANNELS 3 Xrotation Yrotation Zrotation
											JOINT RightHand
											{
												OFFSET -40.960209 0.000000 0.000000
												CHANNELS 3 Xrotation Yrotation Zrotation
												End Site
												{
													OFFSET 0 0 0
												}
											}
										}
									}
								}
							}
						}
					}
				}
			}
		}
	}
}
MOTION
Frames: 11
Frame Time: 0.03333333
-126.852478 89.440033 -2.339527 0.000000 0.000000 0.000000 16.167705 -61.671192 13.159253 -61.373539 -11.584337 12.879019 36.446016 -1.307785 -1.508997 19.838827 2.860997 -15.144937 -4.423864 -0.263257 -0.103431 0.000000 0.000000 0.000000 14.841943 -60.830471 13.016837 -39.010185 -2.318697 -17.281197 81.449739 12.500504 -4.641648 -23.191359 1.607411 16.812676 -9.571404 1.039581 -7.869313 0.000000 0.000000 0.000000 17.718409 -55.887118 12.176327 14.052406 4.543174 -3.766860 16.495342 3.990548 -5.296566 0.656217 -1.952692 0.951870 0.000000 0.000000 0.000000 16.591810 4.193551 -5.162412 -10.273118 14.689112 7.521809 -11.995864 15.193314 -0.102060 0.000000 0.000000 0.000000 17.393017 3.572170 -4.834549 -0.529325 -9.218180 11.643622 -2.438008 -3.452445 -4.827798 -33.087110 17.993910 -22.064766 0.277999 -67.591415 -1.467151 0.000000 0.000000 0.000000 16.030864 3.814790 -4.861098 -1.813044 13.272496 16.846004 3.016770 3.750362 -0.347606 -43.915692 -2.185560 41.893358 -42.891044 71.179703 39.328697 0.000000 0.000000 0.000000 
-130.524063 89.087875 -2.274357 0.000000 0.000000 0.000000 11.186863 -62.179290 8.026224 -57.969783 -14.559486 15.011523 45.191964 -3.667713 -2.667210 14.251262 3.553228 -13.538986 -2.848224 -0.261394 -0.247622 0.000000 0.000000 0.000000 9.757608 -62.339417 8.170542 -43.391871 -0.069893 -20.306791 81.761708 12.144345 -3.894591 -17.958591 0.463459 15.955054 -6.232186 0.695107 -5.687829 0.000000 0.000000 0.000000 15.731230 -58.227028 9.801785 14.411330 4.128531 -3.826619 16.051949 3.102290 -5.806359 0.816459 -1.741597 0.781698 0.000000 0.000000 0.000000 16.244963 3.113664 -5.738644 -12.722830 16.759568 6.592188 -12.951511 18.058257 0.530259 0.000000 0.000000 0.000000 17.103262 2.620255 -5.464731 -0.726945 -10.093904 10.080418 -3.641985 -4.213014 -5.940370 -35.548263 17.642891 -20.363034 -0.006113 -68.244136 -0.848005 0.000000 0.000000 0.000000 15.722074 2.824657 -5.511923 -2.255312 13.352637 15.268604 3.022498 4.622529 0.197634 -42.668574 -3.389429 43.531200 -41.615352 71.976042 37.982989 0.000000 0.000000 0.000000 
-134.196762 89.510727 -2.442978 0.000000 0.000000 0.000000 6.586685 -61.621215 3.516032 -53.560489 -17.249067 16.472743 50.203840 -5.128631 -3.178025 7.438972 4.746749 -11.905576 -0.538060 -0.155185 -0.828689 0.000000 0.000000 0.000000 5.362013 -62.472107 4.077228 -45.147315 2.994853 -22.502024 78.118158 11.019884 -3.122652 -14.431329 -2.132947 14.766913 -2.164107 0.301864 -2.499204 0.000000 0.000000 0.000000 12.855721 -60.069451 7.121810 14.609368 3.631107 -3.765529 15.509563 2.384693 -6.143032 0.853414 -1.264816 0.673703 0.000000 0.000000 0.000000 15.697564 2.303555 -6.162665 -14.715704 18.893408 5.810140 -12.524623 21.147382 1.018227 0.000000 0.000000 0.000000 16.596311 1.902038 -5.900970 -1.272451 -11.175599 7.144914 -4.393565 -4.398864 -6.679983 -36.185912 16.847768 -21.025858 0.518849 -70.078137 0.341309 0.000000 0.000000 0.000000 15.336584 2.083912 -5.923293 -2.584162 13.487296 13.443595 3.238781 5.150089 0.701114 -41.324933 -4.873853 44.156063 -41.873127 73.683514 38.322409 0.000000 0.000000 0.000000 
-137.508194 89.804108 -2.797024 0.000000 0.000000 0.000000 3.333608 -60.858556 0.445885 -49.091817 -19.111301 17.551245 52.041165 -6.231816 -3.319991 0.785397 5.053847 -10.711534 -0.389393 -0.099220 -1.280159 0.000000 0.000000 0.000000 1.787525 -61.918971 0.843827 -44.445677 5.724779 -23.827579 72.203186 9.765662 -2.887957 -13.083554 -4.872289 14.544707 1.817752 0.073810 0.662723 0.000000 0.000000 0.000000 9.542714 -61.254885 4.515713 14.554030 3.170170 -3.669627 14.876357 1.873871 -6.356755 0.646107 -1.201419 0.550656 0.000000 0.000000 0.000000 15.047226 1.798881 -6.416296 -16.099996 20.819363 5.095142 -10.835459 23.987145 1.295493 0.000000 0.000000 0.000000 15.908359 1.460258 -6.173755 -2.133384 -12.317397 3.208943 -4.673318 -3.770230 -6.337330 -34.313077 15.683105 -23.186648 1.523240 -71.865707 1.651236 0.000000 0.000000 0.000000 14.855701 1.619307 -6.105258 -2.766417 13.516745 11.643622 3.683798 5.195832 1.042925 -40.110306 -7.037923 43.893593 -47.473698 76.941699 44.145736 0.000000 0.000000 0.000000 
-140.425262 89.513283 -3.073242 0.000000 0.000000 0.000000 1.355585 -59.902234 -1.164737 -46.170525 -19.536796 18.577418 52.807724 -7.388295 -3.273955 -4.243583 3.676466 -9.654645 -2.123369 -0.118514 -1.364399 0.000000 0.000000 0.000000 -0.564654 -61.001137 -1.085223 -42.413327 7.076853 -24.544990 66.766677 9.023329 -3.337911 -13.428098 -6.652314 16.281831 4.269618 0.012688 2.792839 0.000000 0.000000 0.000000 6.385152 -61.382172 2.421020 14.240202 2.829758 -3.531470 14.197170 1.553177 -6.484343 0.332151 -1.587355 0.647988 0.000000 0.000000 0.000000 14.351146 1.554438 -6.553279 -17.055939 22.407358 4.457960 -8.321073 26.120394 1.388038 0.000000 0.000000 0.000000 15.175266 1.212135 -6.340266 -3.178346 -13.527343 -1.003871 -4.730009 -2.354215 -5.502620 -30.609339 13.809821 -25.870767 1.880728 -71.672911 2.104294 0.000000 0.000000 0.000000 14.309766 1.388412 -6.128034 -2.775716 13.384168 10.005717 4.167634 5.015937 1.008324 -39.599699 -9.835466 42.942981 -64.827347 80.764603 61.819298 0.000000 0.000000 0.000000 
-142.791107 88.533348 -3.410240 0.000000 0.000000 0.000000 0.181431 -59.240328 -1.779872 -45.594197 -18.667967 19.764556 54.517822 -9.079659 -3.102615 -6.211357 0.667007 -9.079450 -3.923940 -0.202311 -1.066796 0.000000 0.000000 0.000000 -2.214067 -60.076186 -2.269019 -40.060829 6.879042 -24.801055 63.504674 9.209151 -4.334857 -15.040987 -6.974446 19.761566 4.846107 -0.026924 3.429008 0.000000 0.000000 0.000000 3.702633 -60.962259 0.946346 13.768735 2.697580 -3.295216 13.555084 1.343707 -6.578976 0.681023 -2.509358 0.715464 0.000000 0.000000 0.000000 13.744129 1.468819 -6.639409 -17.846243 23.540616 3.917618 -5.713340 27.441409 1.365371 0.000000 0.000000 0.000000 14.516394 1.042208 -6.456997 -4.297573 -14.570038 -4.994079 -4.599074 -0.895690 -4.304583 -26.037858 11.267544 -28.362680 1.201282 -68.819804 1.400412 0.000000 0.000000 0.000000 13.748860 1.315731 -6.071240 -2.679304 13.150318 8.623837 4.644433 4.990841 0.711438 -40.361275 -12.771780 41.472150 -98.158172 82.643445 95.461429 0.000000 0.000000 0.000000 
-144.603958 87.359116 -3.523148 0.000000 0.000000 0.000000 -0.352132 -58.998853 -1.761445 -46.956471 -17.011274 21.087943 57.434835 -10.847708 -3.052212 -5.684857 -2.545484 -8.409046 -4.284473 -0.200342 -0.706464 0.000000 0.000000 0.000000 -3.461992 -59.336927 -3.034138 -38.148372 5.396366 -24.885062 63.213886 9.786343 -5.358364 -17.317603 -6.193348 23.435042 3.969326 -0.122873 2.801423 0.000000 0.000000 0.000000 1.987524 -59.949643 0.294691 13.223028 2.772694 -2.903417 13.005815 1.158688 -6.667821 0.984228 -3.276925 0.848725 0.000000 0.000000 0.000000 13.306640 1.378731 -6.695397 -18.718407 24.179882 3.499210 -3.503848 27.921636 1.331221 0.000000 0.000000 0.000000 14.017969 0.876731 -6.548003 -5.338746 -15.249558 -8.330788 -4.898281 0.004988 -2.986977 -21.211724 8.134783 -30.364200 0.691815 -63.847707 0.661115 0.000000 0.000000 0.000000 13.256356 1.270595 -6.006679 -2.582883 12.841815 7.470439 4.769725 5.098737 0.376275 -42.269073 -15.091612 39.564810 -125.931012 82.000704 123.496282 0.000000 0.000000 0.000000 
-146.092117 86.809227 -3.491859 0.000000 0.000000 0.000000 -0.651911 -58.636061 -1.432636 -48.680298 -14.772186 22.282778 60.099046 -11.721085 -3.169599 -4.268311 -4.416894 -7.099901 -2.329465 0.021397 -0.701401 0.000000 0.000000 0.000000 -3.985704 -58.800484 -3.070886 -37.063707 3.336734 -24.979492 64.569398 10.132533 -6.037372 -19.971268 -5.092574 25.839893 2.485558 -0.241956 1.482340 0.000000 0.000000 0.000000 1.072882 -58.651729 0.242555 12.763255 2.939881 -2.357602 12.571488 0.917402 -6.729858 1.091249 -3.670811 1.023690 0.000000 0.000000 0.000000 13.036277 1.202809 -6.753015 -19.637479 24.420228 3.167580 -1.996419 27.523256 1.396211 0.000000 0.000000 0.000000 13.684242 0.638302 -6.600624 -6.184439 -15.443686 -10.711978 -5.437629 0.368543 -2.221741 -17.224764 4.809050 -32.174419 0.758021 -57.913085 0.381544 0.000000 0.000000 0.000000 12.863434 1.146474 -5.965608 -2.551447 12.431408 6.571481 4.546634 5.120854 0.253603 -44.812605 -16.335905 37.441434 -138.048956 80.986461 135.812602 0.000000 0.000000 0.000000 
-147.199097 87.302177 -3.490364 0.000000 0.000000 0.000000 -0.996526 -58.430697 -1.031300 -48.831392 -12.067306 23.182960 60.780679 -11.550095 -3.529314 -3.173473 -4.707640 -5.903310 -0.020176 0.377789 -0.912076 0.000000 0.000000 0.000000 -4.145072 -58.492190 -2.690055 -36.507112 1.425498 -25.235765 65.650754 9.822178 -6.135662 -22.122045 -4.115772 26.302352 1.020534 -0.389383 0.197467 0.000000 0.000000 0.000000 0.591637 -57.348126 0.549270 12.508081 3.049250 -1.771986 12.233898 0.601942 -6.767411 1.225069 -3.698015 1.184689 0.000000 0.000000 0.000000 12.899506 0.905013 -6.773035 -20.422406 24.385531 2.821415 -1.149669 26.433040 1.515098 0.000000 0.000000 0.000000 13.457624 0.312955 -6.610992 -6.776816 -15.092235 -12.114852 -5.991741 0.332206 -1.868924 -14.532558 1.881363 -34.102383 1.536448 -52.321810 0.631321 0.000000 0.000000 0.000000 12.598632 0.900985 -5.950645 -2.670640 11.928763 5.920097 4.326262 4.900654 0.366200 -47.103075 -16.518734 35.373041 -141.914187 80.497215 139.846170 0.000000 0.000000 0.000000 
-148.066696 88.950340 -3.215946 0.000000 0.000000 0.000000 -1.170492 -58.384607 -0.304582 -46.996373 -8.923537 23.569953 58.543095 -10.521822 -4.064525 -2.897393 -3.964537 -5.117211 0.444326 0.743239 -1.112543 0.000000 0.000000 0.000000 -3.648593 -58.281273 -1.555983 -36.226360 0.106136 -25.788800 65.443594 8.819582 -5.601944 -22.760928 -3.490585 25.275025 -0.414412 -0.605619 -0.588172 0.000000 0.000000 0.000000 0.661570 -56.060584 1.339686 12.422372 2.955426 -1.304554 11.961195 0.239920 -6.744562 0.864185 -3.347769 1.435635 0.000000 0.000000 0.000000 12.806429 0.529636 -6.720098 -20.791203 24.229034 2.377820 -0.733524 24.890471 1.641762 0.000000 0.000000 0.000000 13.278657 -0.057128 -6.563753 -7.128967 -14.377685 -12.639581 -6.407736 0.235389 -2.052111 -13.014680 0.002661 -36.104322 2.687010 -47.890104 1.177012 0.000000 0.000000 0.000000 12.423355 0.552120 -5.930710 -2.932647 11.333954 5.425601 4.061153 4.341260 0.551729 -48.550200 -16.102639 33.396743 -143.354237 80.049790 141.472001 0.000000 0.000000 0.000000 
-148.794464 91.274879 -2.928444 0.000000 0.000000 0.000000 -0.987604 -58.328989 0.941136 -43.745753 -5.275748 23.544116 54.285599 -9.262721 -4.422244 -3.215712 -3.301531 -4.469883 -0.875779 0.923108 -1.152248 0.000000 0.000000 0.000000 -2.611369 -58.081634 0.249787 -35.915874 -0.469593 -26.568360 63.166054 7.588386 -4.811671 -21.870602 -3.224168 24.118709 -1.540664 -0.884945 -0.753836 0.000000 0.000000 0.000000 0.875710 -54.931219 2.378582 12.471846 2.617326 -1.100995 11.724983 -0.120092 -6.635537 0.660157 -3.084360 1.568229 0.000000 0.000000 0.000000 12.670576 0.168949 -6.563739 -20.546556 24.102242 1.819622 -0.522951 23.288853 1.671541 0.000000 0.000000 0.000000 13.082380 -0.425325 -6.434627 -7.307715 -13.574197 -12.436775 -6.408548 0.353669 -2.457870 -12.643364 -0.432202 -37.920268 3.772512 -44.809504 1.755025 0.000000 0.000000 0.000000 12.272716 0.182187 -5.851716 -3.298850 10.711008 4.987826 3.728004 3.653170 0.682321 -49.024386 -15.711052 31.572546 -145.459370 79.137693 143.788050 0.000000 0.000000 0.000000 
